<svg xmlns="http://www.w3.org/2000/svg" xmlns:xlink="http://www.w3.org/1999/xlink" viewBox="0 0 379.91 243.07"><defs><linearGradient id="a" x1="356.65" y1="186.75" x2="318.13" y2="353.55" gradientUnits="userSpaceOnUse"><stop offset="0" stop-color="#e8cd5f"/><stop offset="0.15" stop-color="#eac352"/><stop offset="0.71" stop-color="#f0a228"/><stop offset="1" stop-color="#f39518"/></linearGradient><linearGradient id="b" x1="275.23" y1="229.03" x2="246.68" y2="352.69" gradientUnits="userSpaceOnUse"><stop offset="0" stop-color="#e8cd5f"/><stop offset="0.34" stop-color="#ecb93a"/><stop offset="0.78" stop-color="#f1a110"/><stop offset="1" stop-color="#f39800"/></linearGradient><linearGradient id="c" x1="426.99" y1="193.09" x2="377.93" y2="405.57" xlink:href="#b"/><linearGradient id="d" x1="143" y1="224.9" x2="118.39" y2="331.49" xlink:href="#b"/><linearGradient id="e" x1="203.45" y1="253.11" x2="169.45" y2="400.37" xlink:href="#b"/><linearGradient id="f" x1="457.74" y1="229.03" x2="429.19" y2="352.69" xlink:href="#b"/></defs><path d="M344.12,364.13h-56.5c14.75-63.12,28.43-125.32,43.08-188h19.23c-4.81,21.43-9.68,42.76-14.4,63.8,3.52,0,18.39,0,18.39,0L368.05,260Zm-14.4-18.62c6.58-28.34,12.94-56.85,19.59-85.5H330.9q-9.61,42.47-19.38,85.5Z" transform="translate(-107.68 -176.11)" style="fill:url(#a)"/><path d="M248.37,221.54h56.72c-6.13,27-12.1,53.72-18.26,80.84H248.75c-3.35,14.53-6.57,28.19-10,43.13h38.21c-1.63,7-2.86,12.37-4.32,18.62H234.5l-14.57-18.62S247.72,224.24,248.37,221.54Zm33.3,18.38h-19c-3.22,14.34-6.54,28.57-9.81,43.12h18.73Z" transform="translate(-107.68 -176.11)" style="fill:url(#b)"/><path d="M369.84,400.65h38.61c-1.61,6.93-2.88,12.54-4.25,18.43-19.51,0-38.27.09-58.8.09,19.07-81.48,37.92-162.06,56.87-243.06h19C404.16,250.92,387.19,325,369.84,400.65Z" transform="translate(-107.68 -176.11)" style="fill:url(#c)"/><path d="M112.17,221.54h28.67c10.29-45.32,0,0,10.31-45.43h19.39c-3.4,15.13-6.83,30.12-10.27,45.43h15.12c-1.71,6.72-3,12.44-4.51,18.38H156.15q-14.19,62-28.44,124.21h-20c9.71-41.61,19.21-82.35,29-124.21H108.32C109.71,233.3,110.85,227.87,112.17,221.54Z" transform="translate(-107.68 -176.11)" style="fill:url(#d)"/><path d="M234.79,221.54c-1.58,7-2.8,12.07-4.22,18.38h-28.2c-13.76,60.4-27.26,119.35-40.88,179.16H141.38c3.11-13.54,6-26.26,9-39,10.34-44.61,21.68-95.62,32.09-140.2l24.19-18.38C213,221.55,227.31,221.54,234.79,221.54Z" transform="translate(-107.68 -176.11)" style="fill:url(#e)"/><line x1="131.55" y1="167.51" x2="126.04" y2="191.39" style="fill:none"/><path d="M430.87,221.54h56.72c-6.13,27-12.1,53.72-18.26,80.84H431.25c-3.35,14.53-6.57,28.19-10,43.13h38.21c-1.63,7-2.86,12.37-4.32,18.62H417l-14.57-18.62S430.22,224.24,430.87,221.54Zm33.3,18.38h-19c-3.23,14.34-6.55,28.57-9.82,43.12h18.73C457.43,268.76,460.76,254.55,464.17,239.92Z" transform="translate(-107.68 -176.11)" style="fill:url(#f)"/></svg>