<svg xmlns="http://www.w3.org/2000/svg" xmlns:xlink="http://www.w3.org/1999/xlink" viewBox="0 0 32 32">
  <path
    d="M25.353 1.668c1.385 0 2.509 1.121 2.509 2.502v12.258l0.24-0.585-14.231 14.423 0.597-0.249h-10.048c-1.386 0-2.508-1.116-2.508-2.493v-26.689l-0.837 0.834h24.278zM0.238 0v27.523c0 2.299 1.872 4.161 4.182 4.161h10.399l14.717-14.916v-12.599c0-2.301-1.873-4.169-4.183-4.169h-25.115zM26.56 21.784l-0.403 0.402 3.088 3.076 2.518-2.508-3.088-3.076-2.114 2.106zM28.27 20.883l2.282 2.272v-0.803l-1.712 1.704h0.807l-2.282-2.273v0.804l1.711-1.705h-0.807zM20.286 28.034l-0.123 0.121-0.034 0.169-0.57 2.841-0.167 0.836 3.86-0.769 0.123-0.122 6.677-6.651-3.088-3.076-0.403 0.402-6.274 6.25zM26.56 22.588l2.281 2.272v-0.803l-6.274 6.249 0.292-0.156-2.852 0.569 0.671 0.669 0.57-2.841-0.156 0.291 6.274-6.249-0.806 0zM14.757 21.415c0.631 0 1.143 0.509 1.143 1.138v0.302c0 0.628-0.508 1.138-1.143 1.138-0.632 0-1.144-0.51-1.144-1.138v-0.302c-0-0.628 0.508-1.138 1.144-1.138zM9.446 12.309s0.090 0.786 0.972 0.786c0.882 0 0.934-0.786 0.934-0.786-0.058-2.546 1.126-3.756 3.551-3.635 1.614 0.182 2.45 1.089 2.506 2.725-0.112 0.729-0.725 1.671-1.815 2.821-1.444 1.455-2.166 2.757-2.166 3.908v1.18s0.111 0.703 0.909 0.703c0.798 0 0.909-0.703 0.909-0.703v-0.819c0-0.961 0.691-2.116 2.076-3.454 1.449-1.329 2.168-2.544 2.168-3.635-0.119-3.027-1.703-4.604-4.763-4.727-3.521-0.059-5.282 1.82-5.282 5.637z">
  </path>
</svg>